HIERARCHY
ROOT Hips
{
	OFFSET -0.001795 -0.223333 0.028219
	CHANNELS 6 Xposition Yposition Zposition Zrotation Yrotation Xrotation 
	JOINT LeftUpLeg
	{
		OFFSET 0.069520 -0.091406 -0.006815
		CHANNELS 3 Zrotation Yrotation Xrotation
		JOINT LeftLeg
		{
			OFFSET 0.034277 -0.375199 -0.004496
			CHANNELS 3 Zrotation Yrotation Xrotation
			JOINT LeftFoot
			{
				OFFSET -0.013596 -0.397961 -0.043693
				CHANNELS 3 Zrotation Yrotation Xrotation
				JOINT LeftToe
				{
					OFFSET 0.026358 -0.055791 0.119288
					CHANNELS 3 Zrotation Yrotation Xrotation
					End Site
					{
						OFFSET 0.000000 0.000000 0.000000
					}
				}
			}
		}
	}
	JOINT RightUpLeg
	{
		OFFSET -0.067670 -0.090522 -0.004320
		CHANNELS 3 Zrotation Yrotation Xrotation
		JOINT RightLeg
		{
			OFFSET -0.038290 -0.382569 -0.008850
			CHANNELS 3 Zrotation Yrotation Xrotation
			JOINT RightFoot
			{
				OFFSET 0.015774 -0.398415 -0.042312
				CHANNELS 3 Zrotation Yrotation Xrotation
				JOINT RightToe
				{
					OFFSET -0.025372 -0.048144 0.123348
					CHANNELS 3 Zrotation Yrotation Xrotation
					End Site
					{
						OFFSET 0.000000 0.000000 0.000000
					}
				}
			}
		}
	}
	JOINT Spine
	{
		OFFSET -0.002533 0.108963 -0.026696
		CHANNELS 3 Zrotation Yrotation Xrotation
		JOINT Spine1
		{
			OFFSET 0.005487 0.135180 0.001092
			CHANNELS 3 Zrotation Yrotation Xrotation
			JOINT Spine2
			{
				OFFSET 0.001457 0.052922 0.025425
				CHANNELS 3 Zrotation Yrotation Xrotation
				JOINT Neck
				{
					OFFSET -0.002778 0.213870 -0.042857
					CHANNELS 3 Zrotation Yrotation Xrotation
					JOINT Head
					{
						OFFSET 0.005152 0.064970 0.051349
						CHANNELS 3 Zrotation Yrotation Xrotation
						End Site
						{
							OFFSET 0.000000 0.000000 0.000000
						}
					}
				}
				JOINT LeftShoulder
				{
					OFFSET 0.078845 0.121749 -0.034090
					CHANNELS 3 Zrotation Yrotation Xrotation
					JOINT LeftArm
					{
						OFFSET 0.090977 0.030469 -0.008868
						CHANNELS 3 Zrotation Yrotation Xrotation
						JOINT LeftForeArm
						{
							OFFSET 0.259612 -0.012772 -0.027456
							CHANNELS 3 Zrotation Yrotation Xrotation
							JOINT LeftHand
							{
								OFFSET 0.249234 0.008986 -0.001171
								CHANNELS 3 Zrotation Yrotation Xrotation
								End Site
								{
									OFFSET 0.000000 0.000000 0.000000
								}
							}
						}
					}
				}
				JOINT RightShoulder
				{
					OFFSET -0.081759 0.118833 -0.038615
					CHANNELS 3 Zrotation Yrotation Xrotation
					JOINT RightArm
					{
						OFFSET -0.096012 0.032551 -0.009143
						CHANNELS 3 Zrotation Yrotation Xrotation
						JOINT RightForeArm
						{
							OFFSET -0.253742 -0.013329 -0.021401
							CHANNELS 3 Zrotation Yrotation Xrotation
							JOINT RightHand
							{
								OFFSET -0.255298 0.007772 -0.005559
								CHANNELS 3 Zrotation Yrotation Xrotation
								End Site
								{
									OFFSET 0.000000 0.000000 0.000000
								}
							}
						}
					}
				}
			}
		}
	}
}
MOTION
Frames: 13
Frame Time: 0.050000
-1.393703 0.938806 0.531094 -6.178257 51.964773 -1.116459 -6.772850 0.293084 0.034970 1.884304 -2.157265 15.734517 -3.011923 -8.506597 -1.632571 0.000000 0.000000 0.000000 -3.517261 -2.733294 -28.138537 -4.635888 -9.717437 50.845845 -5.666319 -12.322966 4.773411 0.000000 0.000000 0.000000 0.847264 -1.476205 13.391883 0.163225 0.531279 -4.997432 1.500597 -4.031016 11.172874 -11.222467 9.782824 -23.399953 0.000000 0.000000 0.000000 -8.837639 6.689429 -6.258597 -52.913666 -0.301805 -7.624597 -136.763939 -54.336296 96.148055 0.000000 0.000000 0.000000 0.541613 -6.983165 -2.813867 59.409176 -8.864489 -6.945103 97.886051 60.157750 84.888613 0.000000 0.000000 0.000000 
-1.360014 0.945781 0.560455 -8.439088 56.916838 -2.792178 -4.413113 0.303394 4.322289 3.981509 -1.806903 12.269002 -7.492434 -11.178662 2.992724 0.000000 0.000000 0.000000 0.076310 -2.955730 -31.884688 -4.444864 -6.707225 40.469150 -4.653506 -9.087633 6.234020 0.000000 0.000000 0.000000 1.601638 -1.672000 13.521110 0.394380 0.586732 -5.900133 1.466571 -6.488292 11.789105 -10.455260 9.591048 -24.527958 0.000000 0.000000 0.000000 -7.254731 6.209454 -5.505198 -54.556474 -2.906656 -7.225482 -141.828925 -51.959113 99.984375 0.000000 0.000000 0.000000 0.390435 -8.033791 -3.304573 59.112949 -11.458256 -7.872483 96.441417 60.725772 84.224829 0.000000 0.000000 0.000000 
-1.321616 0.957655 0.593623 -10.011301 59.468052 -2.328102 -2.381590 0.031571 5.644156 4.245556 -1.580441 10.869887 -11.924673 -10.959290 9.389118 0.000000 0.000000 0.000000 4.230052 -2.403656 -34.175322 -3.650662 -3.336130 28.390565 -3.822362 -6.107944 8.926341 0.000000 0.000000 0.000000 2.306165 -1.415501 11.604717 0.647420 0.631563 -6.913519 0.991171 -8.401417 12.791252 -10.449480 9.667335 -25.753545 0.000000 0.000000 0.000000 -6.613028 6.716664 -5.502952 -56.158892 -3.428879 -7.676775 -143.169849 -50.166445 99.869676 0.000000 0.000000 0.000000 1.048719 -8.351687 -3.375972 58.660546 -11.878226 -8.040543 95.429907 61.375153 84.184257 0.000000 0.000000 0.000000 
-1.276920 0.969256 0.629612 -10.167122 61.969619 -1.767347 -1.578149 -0.233328 7.280292 4.799675 -1.709234 11.057698 -15.698654 -7.552425 17.556387 0.000000 0.000000 0.000000 6.842914 -1.547515 -32.937396 -4.317730 -1.476645 20.919571 -2.620121 -2.596996 13.873061 0.000000 0.000000 0.000000 2.332382 -1.081509 9.659974 1.026400 0.073294 -4.690682 1.018404 -9.204943 11.152635 -10.385542 9.565059 -26.338498 0.000000 0.000000 0.000000 -6.888407 7.322798 -5.888698 -54.855821 -2.860225 -7.501567 -142.298137 -47.074124 93.932465 0.000000 0.000000 0.000000 1.170027 -7.787839 -3.118027 57.821386 -12.292291 -8.017454 94.226593 62.499264 83.890135 0.000000 0.000000 0.000000 
-1.223902 0.973714 0.667260 -10.477191 64.555818 -1.602346 -0.806124 -0.332630 6.078204 4.786575 -3.240041 17.143265 -18.340002 -6.633601 22.473164 0.000000 0.000000 0.000000 7.918065 -0.978181 -30.711912 -4.917785 -1.971210 22.484180 -3.720281 -3.753281 16.148063 0.000000 0.000000 0.000000 2.646457 -0.720604 7.023020 2.121061 -0.680569 -3.378990 0.016092 -7.703027 10.000800 -8.876039 9.078805 -24.011469 0.000000 0.000000 0.000000 -6.256585 6.604368 -5.623478 -53.755464 -1.423756 -7.906572 -138.942935 -45.762003 84.386306 0.000000 0.000000 0.000000 -1.169061 -7.951452 -3.610535 59.349553 -14.278065 -7.794091 93.845708 62.488184 84.430703 0.000000 0.000000 0.000000 
-1.167418 0.968463 0.702786 -12.892392 65.720742 -5.549545 1.534877 -0.509328 2.543577 -0.845225 -6.889045 31.350799 -15.137951 -0.194041 26.686331 0.000000 0.000000 0.000000 8.936844 0.180434 -25.847377 -3.932210 -3.457485 24.758127 -4.998651 -6.495642 13.396042 0.000000 0.000000 0.000000 3.765896 -0.819014 6.907932 1.088474 -0.215960 -3.599626 1.242211 -4.449852 9.964905 -8.950867 9.411742 -22.529973 0.000000 0.000000 0.000000 -6.134215 5.799612 -5.735559 -52.998126 1.994180 -9.343974 -133.467481 -44.049881 71.239837 0.000000 0.000000 0.000000 -1.533397 -6.668273 -3.254308 58.593677 -15.263172 -7.552465 92.858027 62.581367 85.189444 0.000000 0.000000 0.000000 
-1.113501 0.953480 0.733631 -15.035217 67.604271 -10.016408 2.376344 -0.568596 -4.715907 -10.900290 -11.837586 50.314650 -6.397054 7.605993 25.846789 0.000000 0.000000 0.000000 9.321867 0.802859 -21.333434 -4.016670 -5.355377 28.271735 -5.012508 -8.875948 7.283318 0.000000 0.000000 0.000000 4.255358 -1.174544 8.822623 0.701203 -0.054429 -3.627532 1.691567 -0.798999 10.617592 -7.604735 9.231858 -22.470425 0.000000 0.000000 0.000000 -7.309172 6.673894 -7.378498 -50.176354 5.591432 -9.974682 -131.154761 -41.495728 62.255078 0.000000 0.000000 0.000000 -0.456930 -5.007056 -2.290893 59.082481 -13.707826 -6.584798 93.814946 64.121018 89.895054 0.000000 0.000000 0.000000 
-1.062454 0.941888 0.759686 -15.932772 69.608412 -12.235800 2.461124 -1.633173 -14.251619 -23.432978 -11.233977 62.491978 5.068206 18.059743 23.757006 0.000000 0.000000 0.000000 8.277019 1.111281 -15.858861 -2.747493 -6.724775 28.357285 -4.203976 -10.502015 1.584008 0.000000 0.000000 0.000000 3.692995 -1.388714 10.334562 -0.160767 0.343102 -4.052851 3.345238 2.669776 11.116770 -6.544623 9.138367 -22.105481 0.000000 0.000000 0.000000 -7.780379 6.006110 -8.200944 -50.526697 10.015421 -12.028124 -126.627427 -40.414076 53.870575 0.000000 0.000000 0.000000 1.897435 -4.891276 -1.391890 57.678052 -9.522612 -5.050080 94.978430 67.553232 96.956529 0.000000 0.000000 0.000000 
-1.010291 0.943414 0.782794 -13.189430 69.010080 -9.982001 1.870492 -4.217888 -23.915397 -30.682616 -7.735871 64.157595 11.468046 25.293888 24.632685 0.000000 0.000000 0.000000 7.660428 1.228329 -9.999581 -1.812375 -6.136914 25.599787 -3.802706 -10.827248 0.595942 0.000000 0.000000 0.000000 2.126349 -1.352223 11.196919 -1.411580 1.181952 -6.180740 4.635112 6.807910 13.064007 -4.723856 8.889338 -22.666454 0.000000 0.000000 0.000000 -8.025158 8.236243 -10.064947 -48.697669 14.460115 -13.614737 -123.124873 -37.382963 45.174530 0.000000 0.000000 0.000000 1.644741 -4.145696 -0.895416 58.644425 -5.145922 -2.680582 102.564169 70.630347 111.013699 0.000000 0.000000 0.000000 
-0.955131 0.952154 0.803938 -9.882140 69.491143 -6.103564 3.258734 -7.722951 -32.929860 -31.088257 -5.593363 56.826611 12.855661 28.041073 27.408095 0.000000 0.000000 0.000000 5.919672 0.786005 -4.428565 -0.305346 -4.825269 20.417487 -4.256895 -10.241749 4.090139 0.000000 0.000000 0.000000 0.189916 -0.990447 10.372584 -2.658395 1.493874 -6.093937 5.669686 10.426402 12.464725 -4.584472 8.849936 -22.179319 0.000000 0.000000 0.000000 -6.166535 9.486726 -9.761974 -48.420718 18.397974 -15.980749 -123.140765 -34.843159 40.889074 0.000000 0.000000 0.000000 1.722254 -4.701044 -0.904158 60.020281 -2.245764 -0.590041 120.696900 71.182538 135.602248 0.000000 0.000000 0.000000 
-0.894539 0.966576 0.823249 -8.147049 68.382522 -2.960078 4.918590 -8.969065 -36.431953 -21.539168 -5.043053 41.506885 8.748983 25.453900 25.318856 0.000000 0.000000 0.000000 4.599413 0.095487 0.605699 0.982770 -3.675064 15.826756 -4.174650 -6.270581 11.400615 0.000000 0.000000 0.000000 -0.836932 -0.682075 8.983164 -4.655418 2.195930 -7.643709 6.751539 13.757486 12.510068 -3.947031 8.639492 -21.992327 0.000000 0.000000 0.000000 -3.626495 11.021641 -8.904800 -47.370053 20.915353 -17.598242 -126.352996 -30.119457 34.808116 0.000000 0.000000 0.000000 0.580475 -5.107285 -1.402021 61.854867 -0.393525 1.644198 132.707798 70.375648 152.555387 0.000000 0.000000 0.000000 
-0.828205 0.982651 0.840177 -7.287820 69.086839 -0.637306 3.934134 -8.895188 -35.807720 -8.386004 -2.927982 22.519693 1.006114 19.285686 25.887686 0.000000 0.000000 0.000000 3.722058 -0.805063 5.216067 1.188216 -2.988647 13.215980 -2.889263 -0.904417 20.896272 0.000000 0.000000 0.000000 -2.181181 -0.355992 6.739553 -5.099230 2.324813 -8.392894 7.083217 14.709484 13.361013 -2.027123 8.240604 -23.037879 0.000000 0.000000 0.000000 -1.714210 12.999173 -8.532967 -47.703304 22.352257 -19.273188 -126.387487 -27.116751 28.847703 0.000000 0.000000 0.000000 -1.007558 -4.562470 -1.685258 64.916895 0.969053 4.059942 138.360590 69.160762 160.493407 0.000000 0.000000 0.000000 
-0.756060 0.992970 0.855157 -7.005271 70.108257 -0.086885 2.926013 -7.700327 -32.747993 -3.999214 -1.099198 10.432846 -1.634139 17.025510 26.405471 0.000000 0.000000 0.000000 2.910946 -1.462599 7.847550 0.736239 -3.074035 13.899297 0.403713 4.461092 25.920936 0.000000 0.000000 0.000000 -3.839043 -0.167679 4.018247 -4.667109 2.004205 -6.880158 7.962387 15.693216 13.026946 -1.170824 7.511786 -20.332985 0.000000 0.000000 0.000000 0.655916 12.713537 -6.840434 -50.584207 22.536031 -21.618212 -127.298878 -26.688521 28.193293 0.000000 0.000000 0.000000 -2.771796 -3.926609 -2.064763 66.499468 0.525812 5.108860 142.085165 69.644184 166.241546 0.000000 0.000000 0.000000 
